PathFileType	4	(X/Y/Z)	C:/Users/beibeiliu/ov580/test_trc/User3\sequence.10_training_dense_right.trc
DataRate	CameraRate	NumFrames	NumMarkers	Units	OrigDataRate	OrigDataStartFrame	OrigNumFrames
120	120	18	19	mm	120	26	155
Frame#	Time	ThumbCMC			ThumbMCP			ThumbIP			ThumbTip			IndexMCP			IndexPIP			IndexTip			MiddleMCP			MiddlePIP			MiddleTip			RingMCP			RingPIP			RingTip			PinkyMCP			PinkyPIP			PinkyTip			BackHand1			BackHand2			BackHand3	
		X0	Y0	Z0	X1	Y1	Z1	X2	Y2	Z2	X3	Y3	Z3	X4	Y4	Z4	X5	Y5	Z5	X6	Y6	Z6	X7	Y7	Z7	X8	Y8	Z8	X9	Y9	Z9	X10	Y10	Z10	X11	Y11	Z11	X12	Y12	Z12	X13	Y13	Z13	X14	Y14	Z14	X15	Y15	Z15	X16	Y16	Z16	X17	Y17	Z17	X18	Y18	Z18	
25	0.208333	114.076	38.1735	-6.98918	91.1492	15.1002	-15.0315	82.0045	-9.68148	-23.2661	94.7914	-35.7727	-25.6537	120.479	2.84441	-71.6429	111.955	-14.5584	-91.1883	104.292	-33.2362	-107.82	117.799	-27.3163	-52.71	98.4368	-36.4342	-30.1545	114.609	-2.51494	-6.98698	129.175	-34.5277	-35.1262	111.483	-34.0106	-8.25546	120.118	-8.12885	3.89664	141.692	-41.0219	-23.466	124.767	-37.414	-1.99735	135.903	-10.1671	9.62811	171.895	7.18207	-27.0541	181.313	24.6072	-4.1217	152.342	38.6708	-22.8143	
26	0.216667	127.011	53.1501	-3.61536	96.0753	44.4169	-9.78894	72.4478	25.5286	-16.6812	71.9009	-4.51692	-17.1056	109.81	19.0701	-66.2075	95.2629	5.51079	-82.8116	76.0714	-3.75443	-101.098	98.7584	-3.71895	-46.8946	77.6195	-3.19261	-18.8081	105.031	14.2394	-1.20937	101.221	-14.7368	-29.3531	89.4553	-5.25158	-1.80851	115.554	12.8567	10.0967	112.527	-28.3598	-15.3295	100.244	-11.9797	3.11822	121.481	4.80465	12.5975	157.996	3.10049	-26.5833	177.862	12.6671	-2.91127	159.56	39.5769	-22.2899	
27	0.225	144.516	68.5862	-1.7474	109.244	74.9277	-7.46657	77.172	61.5824	-15.9872	64.6497	39.6252	-11.8588	106.48	38.4983	-64.7708	88.4933	38.3804	-80.5465	67.7947	36.3613	-98.672	87.0431	27.0264	-43.0721	69.4359	36.5467	-16.2653	107.331	43.0025	-0.825537	89.9524	11.2243	-25.783	79.1577	28.8509	-0.326221	111.458	32.0358	12.6109	92.052	-1.6925	-13.8953	83.7611	12.5471	9.41041	114.072	25.0947	15.2512	144.457	4.21035	-25.1412	171.963	9.08225	-1.97206	159.843	37.0659	-24.3489	
28	0.233333	158.034	65.4059	-5.76875	129.275	84.97	-14.9204	101.195	86.9366	-19.7112	76.7924	73.0637	-18.0596	115.805	53.0276	-70.8272	100.679	58.2159	-85.5624	79.959	61.9881	-105.465	91.2856	50.076	-48.1101	79.3931	69.0548	-25.885	113.182	58.0276	-4.36482	85.8344	38.0382	-29.8366	80.758	53.8655	-4.862	110.721	49.0573	8.33489	84.4919	22.9304	-17.9296	81.006	42.1856	2.01946	107.077	37.2081	15.7798	137.537	6.98825	-24.1252	159.043	-0.198372	0.437888	162.613	32.4384	-25.6558	
29	0.241667	173.109	47.7403	-7.69762	154.256	73.7942	-23.2599	126.379	85.9108	-38.9124	99.8417	74.0439	-39.2185	135.043	36.1084	-78.5273	126.756	42.1002	-96.8749	114.057	46.239	-117.505	108.645	44.2572	-62.1634	100.181	68.16	-42.9121	129.187	55.6312	-17.2747	99.8539	34.581	-43.7305	95.4653	59.1468	-23.8333	121.687	49.9705	-4.93413	93.2019	23.4423	-31.29	89.2405	47.8507	-15.6576	109.598	40.2647	3.7515	137.413	-3.76748	-24.8282	152.811	-13.2571	4.09476	172.222	13.9913	-20.6891	
30	0.25	186.726	29.2485	-12.3693	174.76	49.7055	-37.7489	154.866	58.1996	-57.9418	130.403	52.9733	-64.7585	170.122	2.06325	-81.1013	160.175	0.621209	-104.983	155.545	-0.149295	-126.982	137.417	14.4972	-75.2574	127.113	44.603	-67.1311	143.401	37.1349	-32.6465	121.746	11.8181	-61.5177	116.923	40.4286	-51.1909	134.082	32.6741	-20.3316	112.974	4.59478	-48.0098	109.984	30.9708	-43.4794	122.892	30.5443	-18.1469	148.225	-22.7586	-20.8159	156.317	-23.1625	8.13046	183.072	-8.78035	-13.7631	
31	0.258333	199.987	17.4627	-10.0225	192.897	27.9154	-45.5884	180.723	29.0212	-70.7384	157.097	19.6619	-84.5836	200.702	-30.2837	-67.8512	203.403	-38.5922	-96.1171	200.584	-45.789	-119.756	169.493	-19.0525	-78.8953	156.109	10.0039	-82.0547	165.986	17.6513	-41.7417	152.887	-17.5622	-68.2473	141.843	10.115	-65.7386	153.166	17.1695	-37.2313	137.268	-24.2038	-54.6151	133.7	1.62515	-60.0165	144.144	10.8899	-33.2786	169.596	-37.7773	-14.9219	171.261	-30.7361	17.6357	196.283	-21.1901	-3.33567	
32	0.266667	214.514	21.4043	-6.7487	210.816	21.9904	-46.8668	204.212	15.4229	-76.0578	184.788	-1.95668	-87.8566	235.636	-36.7646	-52.6046	247.312	-48.5982	-80.4785	249.301	-57.0087	-100.366	206.274	-35.2668	-67.684	190.439	-8.6372	-83.8393	183.356	5.18638	-47.1889	186.164	-36.9613	-62.0872	171.51	-11.3824	-71.1151	172.351	1.82619	-38.5625	171.224	-43.8476	-50.502	158.403	-21.374	-63.6096	166.077	-4.79744	-36.8437	193.589	-44.3313	-3.40152	184.831	-31.5159	22.1109	216.734	-20.1102	3.76488	
33	0.275	217.237	34.0699	-7.64189	215.528	36.7685	-43.7105	211.921	25.3594	-73.2981	202.225	0.107207	-88.5313	264.287	-14.6198	-49.3561	275.193	-23.772	-69.2055	282.111	-35.5562	-90.0462	230.959	-25.9931	-61.3273	211.083	-6.73015	-82.2354	197.637	10.8428	-49.9877	211.701	-31.7366	-60.5408	190.985	-13.2958	-69.0463	184.816	0.907234	-40.5723	199.983	-42.7394	-49.5268	183.893	-24.7476	-63.0674	179.815	-4.24369	-35.8578	220.17	-32.1515	1.99711	206.898	-20.0663	24.0754	232.22	3.60831	10.0047	
34	0.283333	214.704	48.1582	-8.95678	212.977	51.2168	-46.2752	212.027	38.4217	-69.7999	210.839	13.1923	-87.9114	272.103	16.5691	-47.2464	291.38	16.77	-70.6839	301.202	10.0501	-87.7319	250.252	3.06026	-64.909	224.774	9.21571	-81.6761	204.768	19.8987	-46.7666	234.084	-11.6554	-57.8959	208.343	-4.17581	-68.5033	197.544	13.0536	-37.9376	224.131	-26.894	-48.6674	202.486	-15.1571	-60.5301	194.791	2.02009	-36.9593	235.801	-11.7815	2.53221	219.22	-3.35978	26.5585	239.233	24.5755	8.57751	
35	0.291667	203.748	59.3327	-5.54893	203.192	61.9422	-46.2268	205.229	52.9722	-73.6122	213.101	27.7876	-83.0888	271.862	58.2622	-50.2304	283.914	57.3668	-69.7201	297.454	61.9292	-90.0984	255.132	30.129	-67.5177	226.78	27.311	-82.4733	206.388	26.8167	-49.0119	245.199	9.24193	-58.0351	214.624	13.0538	-68.4344	202.516	18.6004	-35.7357	241.247	-4.47638	-53.0348	218.766	-1.37381	-61.7104	204.844	8.94468	-35.1507	250.786	15.8676	1.12133	230.045	12.4946	27.5251	238.344	44.1114	9.78773	
36	0.3	191.314	62.0078	-9.95451	184.998	61.612	-43.6598	194.763	55.2524	-77.1322	208.581	35.9609	-87.1259	250.546	84.2745	-53.685	258.387	96.2307	-74.9907	269.386	99.435	-95.7525	243.766	58.033	-70.8709	221.825	41.6034	-85.1353	201.332	35.074	-49.0151	244.654	33.9295	-61.92	215.9	21.1123	-69.0103	204.763	24.7369	-38.2949	249.036	15.4434	-53.0887	219.88	9.03065	-61.8424	208.237	14.046	-39.0143	249.162	39.354	-4.37188	236.795	32.3884	20.1272	225.462	61.2298	8.45794	
37	0.308333	173.908	50.089	-10.7065	165.837	47.8883	-47.8704	177.927	43.1246	-81.319	199.854	30.7559	-90.5362	214.585	93.3195	-62.3953	219.63	104.941	-84.5795	221.115	117.404	-107.98	224.147	65.6563	-77.5107	210.029	39.2889	-89.172	198.667	29.2846	-51.8791	233.842	46.104	-68.0492	212.085	21.0572	-71.3799	201.315	22.4947	-42.3439	244.302	30.7342	-60.216	221.816	13.0834	-63.7752	210.415	16.3492	-36.4061	238.46	57.5741	-9.10703	232.899	46.2581	15.3504	207.861	70.1816	-2.64164	
38	0.316667	162.86	42.0188	-13.5045	156.952	32.9304	-49.7249	168.992	26.282	-81.4839	189.931	16.6004	-90.8477	193.307	85.8846	-76.4367	191.879	94.6695	-99.6068	194.382	100.389	-124.167	211.172	57.0871	-82.7379	197.594	29.1752	-92.7044	188.387	22.041	-52.2963	219.444	40.5001	-75.094	209.877	13.3551	-74.2545	196.331	16.1784	-42.3748	235.706	33.1523	-61.9108	222.617	9.42785	-65.6235	209.253	11.4166	-38.9791	224.25	61.2303	-17.1652	219.403	54.505	9.10937	193.524	69.8542	-8.48576	
39	0.325	152.424	37.7806	-16.5375	153.323	22.5258	-52.3626	165.724	11.1511	-77.1094	184.677	0.335736	-85.7369	179.357	68.6928	-81.1601	177.78	72.7741	-108.11	178.649	73.3441	-134.788	197.893	42.4551	-89.5449	190.149	9.7864	-88.8551	184.909	13.3033	-49.5864	214.047	25.9977	-76.5971	200.803	0.609891	-69.511	190.31	10.1093	-38.3123	225.415	24.6865	-64.2137	213.294	-1.29479	-60.5471	203.981	8.15401	-32.408	218.949	58.999	-24.3292	214.136	54.7232	6.96354	183.304	68.1462	-16.3061	
40	0.333333	150.55	35.8178	-19.6983	149.026	12.0181	-45.8988	158.881	-6.07933	-69.5809	182.536	-15.438	-76.8691	175.667	51.7934	-88.4387	176.877	46.3052	-114.5	176.592	39.1437	-142.557	197.685	23.2991	-86.8109	184.95	-5.88605	-84.1283	178.703	3.44517	-44.1197	211.518	12.9406	-70.0851	196.205	-12.8816	-61.2778	187.499	-0.855283	-31.3718	225.226	7.82037	-59.4621	208.793	-13.8625	-50.1631	199.807	0.663232	-25.5257	213.065	53.792	-30.5155	210.707	57.9276	0.876534	182.442	61.93	-21.5457	
41	0.341667	149.566	32.5751	-17.2773	142.475	3.63511	-37.9535	156.182	-17.9252	-59.1726	179.469	-31.8458	-65.1155	170.185	33.6849	-90.6669	170.296	22.3743	-115.236	167.843	11.6155	-136.658	189.503	3.08986	-83.9697	180.609	-23.5704	-69.8114	176.105	-3.57867	-34.9607	204.827	-4.99968	-65.4734	189.994	-25.0291	-51.9613	181.752	-3.86745	-22.2907	220.833	-3.76389	-51.7801	199.024	-21.6345	-40.1462	194.089	-5.27099	-18.4263	211.938	47.7279	-32.2053	208.406	53.4157	-5.94122	176.683	58.4652	-26.3679	
42	0.35	146.223	31.4273	-15.19	136.449	0.866731	-29.0428	143.758	-26.9176	-48.1259	167.557	-42.4923	-53.2942	164.166	16.6432	-90.0435	160.04	4.44727	-108.424	155.855	-10.3974	-128.751	180.698	-11.9693	-75.5157	169.185	-34.2971	-59.3494	165.109	-9.75232	-26.0499	191.283	-13.5968	-58.4393	178.085	-32.1946	-37.4192	169.858	-10.5581	-15.4205	210.589	-15.9021	-45.6805	192.426	-31.2397	-29.8795	184.073	-7.06186	-10.0399	206.464	39.7496	-35.1436	206.888	50.2074	-9.89559	173.682	52.2136	-31.7247	
